<svg
  width="512"
  height="512"
  viewBox="0 0 512 512"
  fill="none"
  xmlns="http://www.w3.org/2000/svg"
>
  <path
    d="M256 50C142.22 50 50 142.22 50 256C50 369.78 142.22 462 256 462C369.78 462 462 369.78 462 256C462 142.22 369.78 50 256 50ZM256 422C165.41 422 90 346.59 90 256C90 165.41 165.41 90 256 90C346.59 90 422 165.41 422 256C422 346.59 346.59 422 256 422Z"
    fill="#00B0C6"
  />
  <path
    d="M268.6 112.6C261.2 112.4 256 117.6 256 125V256H125C117.6 256 112.4 261.2 112.6 268.6C113.4 300.2 122.2 330.6 137.6 357.5L137.7 357.6C142.1 365.6 152.2 368.1 160.2 363.7L363.7 242.C371.7 237.6 374.2 227.4 369.7 219.4L369.6 219.3C342.7 174.1 306.4 137.7 268.6 112.6Z"
    fill="#00B0C6"
  />
</svg>
